<svg viewBox="0 0 1400 1000" xmlns="http://www.w3.org/2000/svg">
  <!-- Title -->
  <text x="700" y="30" font-size="28" font-weight="bold" text-anchor="middle" fill="#2d3748">
    Pesticide Sprayer Robot - Circuit Connection Diagram
  </text>
  
  <!-- Battery -->
  <g id="battery">
    <rect x="50" y="80" width="120" height="80" fill="#e53e3e" stroke="#742a2a" stroke-width="3" rx="5"/>
    <text x="110" y="115" font-size="16" font-weight="bold" text-anchor="middle" fill="white">12V Battery</text>
    <text x="110" y="135" font-size="12" text-anchor="middle" fill="white">Li-ion</text>
    <circle cx="60" cy="95" r="6" fill="white"/>
    <text x="60" y="98" font-size="10" font-weight="bold" text-anchor="middle" fill="#e53e3e">+</text>
    <circle cx="160" cy="95" r="6" fill="white"/>
    <text x="160" y="98" font-size="10" font-weight="bold" text-anchor="middle" fill="#e53e3e">-</text>
  </g>

  <!-- LM2596 Buck Converter -->
  <g id="lm2596">
    <rect x="250" y="80" width="130" height="80" fill="#f6ad55" stroke="#c05621" stroke-width="3" rx="5"/>
    <text x="315" y="110" font-size="14" font-weight="bold" text-anchor="middle" fill="white">LM2596</text>
    <text x="315" y="130" font-size="12" text-anchor="middle" fill="white">Buck Converter</text>
    <text x="315" y="148" font-size="11" text-anchor="middle" fill="white">12V → 5V</text>
    
    <!-- Input pins -->
    <circle cx="255" cy="95" r="5" fill="#fff"/>
    <text x="245" y="98" font-size="9" text-anchor="end" fill="#333">IN+</text>
    <circle cx="255" cy="145" r="5" fill="#fff"/>
    <text x="245" y="148" font-size="9" text-anchor="end" fill="#333">IN-</text>
    
    <!-- Output pins -->
    <circle cx="375" cy="95" r="5" fill="#fff"/>
    <text x="385" y="98" font-size="9" text-anchor="start" fill="#333">OUT+ 5V</text>
    <circle cx="375" cy="145" r="5" fill="#fff"/>
    <text x="385" y="148" font-size="9" text-anchor="start" fill="#333">OUT-</text>
  </g>

  <!-- Arduino UNO -->
  <g id="arduino">
    <rect x="450" y="60" width="180" height="120" fill="#00979d" stroke="#005f73" stroke-width="3" rx="5"/>
    <text x="540" y="90" font-size="18" font-weight="bold" text-anchor="middle" fill="white">Arduino UNO</text>
    <text x="540" y="110" font-size="12" text-anchor="middle" fill="white">ATmega328P</text>
    
    <!-- Power pins -->
    <circle cx="455" cy="80" r="5" fill="#fff"/>
    <text x="445" y="83" font-size="9" text-anchor="end" fill="#333">VIN</text>
    <circle cx="455" cy="100" r="5" fill="#fff"/>
    <text x="445" y="103" font-size="9" text-anchor="end" fill="#333">GND</text>
    <circle cx="455" cy="120" r="5" fill="#fff"/>
    <text x="445" y="123" font-size="9" text-anchor="end" fill="#333">5V</text>
    
    <!-- Digital pins right side -->
    <circle cx="625" cy="75" r="4" fill="#fff"/>
    <text x="635" y="78" font-size="8" text-anchor="start" fill="#333">D2</text>
    <circle cx="625" cy="90" r="4" fill="#fff"/>
    <text x="635" y="93" font-size="8" text-anchor="start" fill="#333">D3</text>
    <circle cx="625" cy="105" r="4" fill="#fff"/>
    <text x="635" y="108" font-size="8" text-anchor="start" fill="#333">D4</text>
    <circle cx="625" cy="120" r="4" fill="#fff"/>
    <text x="635" y="123" font-size="8" text-anchor="start" fill="#333">D5</text>
    <circle cx="625" cy="135" r="4" fill="#fff"/>
    <text x="635" y="138" font-size="8" text-anchor="start" fill="#333">D6</text>
    <circle cx="625" cy="150" r="4" fill="#fff"/>
    <text x="635" y="153" font-size="8" text-anchor="start" fill="#333">D7</text>
    <circle cx="625" cy="165" r="4" fill="#fff"/>
    <text x="635" y="168" font-size="8" text-anchor="start" fill="#333">D8</text>
    
    <!-- More pins bottom -->
    <circle cx="475" cy="175" r="4" fill="#fff"/>
    <text x="475" y="188" font-size="8" text-anchor="middle" fill="#333">D9</text>
    <circle cx="500" cy="175" r="4" fill="#fff"/>
    <text x="500" y="188" font-size="8" text-anchor="middle" fill="#333">D10</text>
    <circle cx="525" cy="175" r="4" fill="#fff"/>
    <text x="525" y="188" font-size="8" text-anchor="middle" fill="#333">D11</text>
  </g>

  <!-- L298N Motor Driver 1 (Left) -->
  <g id="l298n1">
    <rect x="750" y="60" width="150" height="140" fill="#667eea" stroke="#434190" stroke-width="3" rx="5"/>
    <text x="825" y="85" font-size="14" font-weight="bold" text-anchor="middle" fill="white">L298N #1</text>
    <text x="825" y="103" font-size="11" text-anchor="middle" fill="white">Left Motors</text>
    
    <!-- Input pins -->
    <circle cx="755" cy="120" r="4" fill="#fff"/>
    <text x="745" y="123" font-size="8" text-anchor="end" fill="#333">IN1</text>
    <circle cx="755" cy="135" r="4" fill="#fff"/>
    <text x="745" y="138" font-size="8" text-anchor="end" fill="#333">IN2</text>
    <circle cx="755" cy="150" r="4" fill="#fff"/>
    <text x="745" y="153" font-size="8" text-anchor="end" fill="#333">ENA</text>
    <circle cx="755" cy="165" r="4" fill="#fff"/>
    <text x="745" y="168" font-size="8" text-anchor="end" fill="#333">12V</text>
    <circle cx="755" cy="180" r="4" fill="#fff"/>
    <text x="745" y="183" font-size="8" text-anchor="end" fill="#333">GND</text>
    
    <!-- Output pins -->
    <circle cx="895" cy="125" r="4" fill="#fff"/>
    <text x="905" y="128" font-size="8" text-anchor="start" fill="#333">OUT1</text>
    <circle cx="895" cy="140" r="4" fill="#fff"/>
    <text x="905" y="143" font-size="8" text-anchor="start" fill="#333">OUT2</text>
    <circle cx="895" cy="155" r="4" fill="#fff"/>
    <text x="905" y="158" font-size="8" text-anchor="start" fill="#333">OUT3</text>
    <circle cx="895" cy="170" r="4" fill="#fff"/>
    <text x="905" y="173" font-size="8" text-anchor="start" fill="#333">OUT4</text>
  </g>

  <!-- L298N Motor Driver 2 (Right) -->
  <g id="l298n2">
    <rect x="750" y="230" width="150" height="140" fill="#9f7aea" stroke="#553c9a" stroke-width="3" rx="5"/>
    <text x="825" y="255" font-size="14" font-weight="bold" text-anchor="middle" fill="white">L298N #2</text>
    <text x="825" y="273" font-size="11" text-anchor="middle" fill="white">Right Motors</text>
    
    <!-- Input pins -->
    <circle cx="755" cy="290" r="4" fill="#fff"/>
    <text x="745" y="293" font-size="8" text-anchor="end" fill="#333">IN3</text>
    <circle cx="755" cy="305" r="4" fill="#fff"/>
    <text x="745" y="308" font-size="8" text-anchor="end" fill="#333">IN4</text>
    <circle cx="755" cy="320" r="4" fill="#fff"/>
    <text x="745" y="323" font-size="8" text-anchor="end" fill="#333">ENB</text>
    <circle cx="755" cy="335" r="4" fill="#fff"/>
    <text x="745" y="338" font-size="8" text-anchor="end" fill="#333">12V</text>
    <circle cx="755" cy="350" r="4" fill="#fff"/>
    <text x="745" y="353" font-size="8" text-anchor="end" fill="#333">GND</text>
    
    <!-- Output pins -->
    <circle cx="895" cy="295" r="4" fill="#fff"/>
    <text x="905" y="298" font-size="8" text-anchor="start" fill="#333">OUT1</text>
    <circle cx="895" cy="310" r="4" fill="#fff"/>
    <text x="905" y="313" font-size="8" text-anchor="start" fill="#333">OUT2</text>
    <circle cx="895" cy="325" r="4" fill="#fff"/>
    <text x="905" y="328" font-size="8" text-anchor="start" fill="#333">OUT3</text>
    <circle cx="895" cy="340" r="4" fill="#fff"/>
    <text x="905" y="343" font-size="8" text-anchor="start" fill="#333">OUT4</text>
  </g>

  <!-- Motors -->
  <g id="motors">
    <rect x="1000" y="100" width="80" height="60" fill="#718096" stroke="#2d3748" stroke-width="2" rx="3"/>
    <text x="1040" y="125" font-size="11" text-anchor="middle" fill="white">Motor 1</text>
    <text x="1040" y="140" font-size="9" text-anchor="middle" fill="white">Left Front</text>
    <circle cx="1005" cy="115" r="3" fill="#fff"/>
    <circle cx="1005" cy="145" r="3" fill="#fff"/>
    
    <rect x="1000" y="180" width="80" height="60" fill="#718096" stroke="#2d3748" stroke-width="2" rx="3"/>
    <text x="1040" y="205" font-size="11" text-anchor="middle" fill="white">Motor 2</text>
    <text x="1040" y="220" font-size="9" text-anchor="middle" fill="white">Left Rear</text>
    <circle cx="1005" cy="195" r="3" fill="#fff"/>
    <circle cx="1005" cy="225" r="3" fill="#fff"/>
    
    <rect x="1000" y="270" width="80" height="60" fill="#718096" stroke="#2d3748" stroke-width="2" rx="3"/>
    <text x="1040" y="295" font-size="11" text-anchor="middle" fill="white">Motor 3</text>
    <text x="1040" y="310" font-size="9" text-anchor="middle" fill="white">Right Front</text>
    <circle cx="1005" cy="285" r="3" fill="#fff"/>
    <circle cx="1005" cy="315" r="3" fill="#fff"/>
    
    <rect x="1000" y="350" width="80" height="60" fill="#718096" stroke="#2d3748" stroke-width="2" rx="3"/>
    <text x="1040" y="375" font-size="11" text-anchor="middle" fill="white">Motor 4</text>
    <text x="1040" y="390" font-size="9" text-anchor="middle" fill="white">Right Rear</text>
    <circle cx="1005" cy="365" r="3" fill="#fff"/>
    <circle cx="1005" cy="395" r="3" fill="#fff"/>
  </g>

  <!-- HC-05 Bluetooth -->
  <g id="bluetooth">
    <rect x="250" y="230" width="130" height="80" fill="#3182ce" stroke="#2c5282" stroke-width="3" rx="5"/>
    <text x="315" y="255" font-size="14" font-weight="bold" text-anchor="middle" fill="white">HC-05</text>
    <text x="315" y="273" font-size="11" text-anchor="middle" fill="white">Bluetooth</text>
    
    <circle cx="255" cy="245" r="4" fill="#fff"/>
    <text x="245" y="248" font-size="8" text-anchor="end" fill="#333">VCC</text>
    <circle cx="255" cy="260" r="4" fill="#fff"/>
    <text x="245" y="263" font-size="8" text-anchor="end" fill="#333">GND</text>
    <circle cx="255" cy="275" r="4" fill="#fff"/>
    <text x="245" y="278" font-size="8" text-anchor="end" fill="#333">TXD</text>
    <circle cx="255" cy="290" r="4" fill="#fff"/>
    <text x="245" y="293" font-size="8" text-anchor="end" fill="#333">RXD</text>
  </g>

  <!-- Relay 1 (Pump) -->
  <g id="relay1">
    <rect x="250" y="400" width="130" height="90" fill="#48bb78" stroke="#276749" stroke-width="3" rx="5"/>
    <text x="315" y="425" font-size="14" font-weight="bold" text-anchor="middle" fill="white">Relay #1</text>
    <text x="315" y="443" font-size="11" text-anchor="middle" fill="white">Pump Control</text>
    
    <circle cx="255" cy="415" r="4" fill="#fff"/>
    <text x="245" y="418" font-size="8" text-anchor="end" fill="#333">VCC</text>
    <circle cx="255" cy="430" r="4" fill="#fff"/>
    <text x="245" y="433" font-size="8" text-anchor="end" fill="#333">GND</text>
    <circle cx="255" cy="445" r="4" fill="#fff"/>
    <text x="245" y="448" font-size="8" text-anchor="end" fill="#333">IN</text>
    
    <circle cx="375" cy="420" r="4" fill="#fff"/>
    <text x="385" y="423" font-size="8" text-anchor="start" fill="#333">COM</text>
    <circle cx="375" cy="435" r="4" fill="#fff"/>
    <text x="385" y="438" font-size="8" text-anchor="start" fill="#333">NO</text>
  </g>

  <!-- Relay 2 (Cutter) -->
  <g id="relay2">
    <rect x="250" y="520" width="130" height="90" fill="#38b2ac" stroke="#234e52" stroke-width="3" rx="5"/>
    <text x="315" y="545" font-size="14" font-weight="bold" text-anchor="middle" fill="white">Relay #2</text>
    <text x="315" y="563" font-size="11" text-anchor="middle" fill="white">Cutter Control</text>
    
    <circle cx="255" cy="535" r="4" fill="#fff"/>
    <text x="245" y="538" font-size="8" text-anchor="end" fill="#333">VCC</text>
    <circle cx="255" cy="550" r="4" fill="#fff"/>
    <text x="245" y="553" font-size="8" text-anchor="end" fill="#333">GND</text>
    <circle cx="255" cy="565" r="4" fill="#fff"/>
    <text x="245" y="568" font-size="8" text-anchor="end" fill="#333">IN</text>
    
    <circle cx="375" cy="540" r="4" fill="#fff"/>
    <text x="385" y="543" font-size="8" text-anchor="start" fill="#333">COM</text>
    <circle cx="375" cy="555" r="4" fill="#fff"/>
    <text x="385" y="558" font-size="8" text-anchor="start" fill="#333">NO</text>
  </g>

  <!-- Water Pump -->
  <g id="pump">
    <rect x="450" y="400" width="100" height="70" fill="#ed8936" stroke="#9c4221" stroke-width="2" rx="3"/>
    <text x="500" y="425" font-size="12" font-weight="bold" text-anchor="middle" fill="white">Water</text>
    <text x="500" y="440" font-size="12" font-weight="bold" text-anchor="middle" fill="white">Pump</text>
    <circle cx="455" cy="415" r="3" fill="#fff"/>
    <text x="455" y="403" font-size="8" text-anchor="middle" fill="#333">+</text>
    <circle cx="455" cy="455" r="3" fill="#fff"/>
    <text x="455" y="468" font-size="8" text-anchor="middle" fill="#333">-</text>
  </g>

  <!-- Cutter Motor -->
  <g id="cutter">
    <rect x="450" y="520" width="100" height="70" fill="#e53e3e" stroke="#742a2a" stroke-width="2" rx="3"/>
    <text x="500" y="545" font-size="12" font-weight="bold" text-anchor="middle" fill="white">Cutter</text>
    <text x="500" y="560" font-size="12" font-weight="bold" text-anchor="middle" fill="white">Motor</text>
    <text x="500" y="575" font-size="9" text-anchor="middle" fill="white">1000 RPM</text>
    <circle cx="455" cy="535" r="3" fill="#fff"/>
    <text x="455" y="523" font-size="8" text-anchor="middle" fill="#333">+</text>
    <circle cx="455" cy="575" r="3" fill="#fff"/>
    <text x="455" y="588" font-size="8" text-anchor="middle" fill="#333">-</text>
  </g>

  <!-- Connection Lines - Battery to LM2596 -->
  <line x1="60" y1="95" x2="60" y2="70" stroke="#e53e3e" stroke-width="3"/>
  <line x1="60" y1="70" x2="255" y2="70" stroke="#e53e3e" stroke-width="3"/>
  <line x1="255" y1="70" x2="255" y2="95" stroke="#e53e3e" stroke-width="3"/>
  
  <line x1="160" y1="95" x2="160" y2="170" stroke="#000" stroke-width="3"/>
  <line x1="160" y1="170" x2="255" y2="170" stroke="#000" stroke-width="3"/>
  <line x1="255" y1="170" x2="255" y2="145" stroke="#000" stroke-width="3"/>

  <!-- LM2596 to Arduino -->
  <line x1="375" y1="95" x2="455" y2="95" stroke="#f6ad55" stroke-width="2"/>
  <line x1="455" y1="95" x2="455" y2="80" stroke="#f6ad55" stroke-width="2"/>
  
  <line x1="375" y1="145" x2="420" y2="145" stroke="#000" stroke-width="2"/>
  <line x1="420" y1="145" x2="420" y2="100" stroke="#000" stroke-width="2"/>
  <line x1="420" y1="100" x2="455" y2="100" stroke="#000" stroke-width="2"/>

  <!-- Arduino 5V to modules -->
  <line x1="455" y1="120" x2="420" y2="120" stroke="#f56565" stroke-width="2"/>
  <line x1="420" y1="120" x2="420" y2="245" stroke="#f56565" stroke-width="2"/>
  <line x1="420" y1="245" x2="255" y2="245" stroke="#f56565" stroke-width="2"/>
  
  <line x1="420" y1="245" x2="420" y2="415" stroke="#f56565" stroke-width="2"/>
  <line x1="420" y1="415" x2="255" y2="415" stroke="#f56565" stroke-width="2"/>
  
  <line x1="420" y1="415" x2="420" y2="535" stroke="#f56565" stroke-width="2"/>
  <line x1="420" y1="535" x2="255" y2="535" stroke="#f56565" stroke-width="2"/>

  <!-- Arduino to L298N signals -->
  <line x1="625" y1="75" x2="755" y2="75" stroke="#667eea" stroke-width="2"/>
  <line x1="755" y1="75" x2="755" y2="120" stroke="#667eea" stroke-width="2"/>
  
  <line x1="625" y1="90" x2="735" y2="90" stroke="#667eea" stroke-width="2"/>
  <line x1="735" y1="90" x2="735" y2="135" stroke="#667eea" stroke-width="2"/>
  <line x1="735" y1="135" x2="755" y2="135" stroke="#667eea" stroke-width="2"/>
  
  <line x1="625" y1="120" x2="720" y2="120" stroke="#667eea" stroke-width="2"/>
  <line x1="720" y1="120" x2="720" y2="150" stroke="#667eea" stroke-width="2"/>
  <line x1="720" y1="150" x2="755" y2="150" stroke="#667eea" stroke-width="2"/>
  
  <line x1="625" y1="105" x2="710" y2="105" stroke="#9f7aea" stroke-width="2"/>
  <line x1="710" y1="105" x2="710" y2="290" stroke="#9f7aea" stroke-width="2"/>
  <line x1="710" y1="290" x2="755" y2="290" stroke="#9f7aea" stroke-width="2"/>
  
  <line x1="625" y1="150" x2="700" y2="150" stroke="#9f7aea" stroke-width="2"/>
  <line x1="700" y1="150" x2="700" y2="305" stroke="#9f7aea" stroke-width="2"/>
  <line x1="700" y1="305" x2="755" y2="305" stroke="#9f7aea" stroke-width="2"/>
  
  <line x1="625" y1="135" x2="690" y2="135" stroke="#9f7aea" stroke-width="2"/>
  <line x1="690" y1="135" x2="690" y2="320" stroke="#9f7aea" stroke-width="2"/>
  <line x1="690" y1="320" x2="755" y2="320" stroke="#9f7aea" stroke-width="2"/>

  <!-- Battery to L298N power -->
  <line x1="60" y1="70" x2="680" y2="70" stroke="#e53e3e" stroke-width="3"/>
  <line x1="680" y1="70" x2="680" y2="165" stroke="#e53e3e" stroke-width="3"/>
  <line x1="680" y1="165" x2="755" y2="165" stroke="#e53e3e" stroke-width="3"/>
  
  <line x1="680" y1="165" x2="680" y2="335" stroke="#e53e3e" stroke-width="3"/>
  <line x1="680" y1="335" x2="755" y2="335" stroke="#e53e3e" stroke-width="3"/>

  <!-- L298N to Motors -->
  <line x1="895" y1="125" x2="1005" y2="125" stroke="#718096" stroke-width="2"/>
  <line x1="1005" y1="125" x2="1005" y2="115" stroke="#718096" stroke-width="2"/>
  
  <line x1="895" y1="140" x2="970" y2="140" stroke="#718096" stroke-width="2"/>
  <line x1="970" y1="140" x2="970" y2="145" stroke="#718096" stroke-width="2"/>
  <line x1="970" y1="145" x2="1005" y2="145" stroke="#718096" stroke-width="2"/>
  
  <line x1="895" y1="155" x2="960" y2="155" stroke="#718096" stroke-width="2"/>
  <line x1="960" y1="155" x2="960" y2="195" stroke="#718096" stroke-width="2"/>
  <line x1="960" y1="195" x2="1005" y2="195" stroke="#718096" stroke-width="2"/>
  
  <line x1="895" y1="170" x2="950" y2="170" stroke="#718096" stroke-width="2"/>
  <line x1="950" y1="170" x2="950" y2="225" stroke="#718096" stroke-width="2"/>
  <line x1="950" y1="225" x2="1005" y2="225" stroke="#718096" stroke-width="2"/>
  
  <line x1="895" y1="295" x2="1005" y2="295" stroke="#718096" stroke-width="2"/>
  <line x1="1005" y1="295" x2="1005" y2="285" stroke="#718096" stroke-width="2"/>
  
  <line x1="895" y1="310" x2="970" y2="310" stroke="#718096" stroke-width="2"/>
  <line x1="970" y1="310" x2="970" y2="315" stroke="#718096" stroke-width="2"/>
  <line x1="970" y1="315" x2="1005" y2="315" stroke="#718096" stroke-width="2"/>
  
  <line x1="895" y1="325" x2="960" y2="325" stroke="#718096" stroke-width="2"/>
  <line x1="960" y1="325" x2="960" y2="365" stroke="#718096" stroke-width="2"/>
  <line x1="960" y1="365" x2="1005" y2="365" stroke="#718096" stroke-width="2"/>
  
  <line x1="895" y1="340" x2="950" y2="340" stroke="#718096" stroke-width="2"/>
  <line x1="950" y1="340" x2="950" y2="395" stroke="#718096" stroke-width="2"/>
  <line x1="950" y1="395" x2="1005" y2="395" stroke="#718096" stroke-width="2"/>

  <!-- Bluetooth to Arduino -->
  <line x1="255" y1="275" x2="215" y2="275" stroke="#3182ce" stroke-width="2"/>
  <line x1="215" y1="275" x2="215" y2="210" stroke="#3182ce" stroke-width="2"/>
  <line x1="215" y1="210" x2="500" y2="210" stroke="#3182ce" stroke-width="2"/>
  <line x1="500" y1="210" x2="500" y2="175" stroke="#3182ce" stroke-width="2"/>
  
  <line x1="255" y1="290" x2="200" y2="290" stroke="#3182ce" stroke-width="2"/>
  <line x1="200" y1="290" x2="200" y2="220" stroke="#3182ce" stroke-width="2"/>
  <line x1="200" y1="220" x2="525" y2="220" stroke="#3182ce" stroke-width="2"/>
  <line x1="525" y1="220" x2="525" y2="175" stroke="#3182ce" stroke-width="2"/>

  <!-- Relays to Arduino -->
  <line x1="255" y1="445" x2="235" y2="445" stroke="#48bb78" stroke-width="2"/>
  <line x1="235" y1="445" x2="235" y2="240" stroke="#48bb78" stroke-width="2"/>
  <line x1="235" y1="240" x2="625" y2="240" stroke="#48bb78" stroke-width="2"/>
  <line x1="625" y1="240" x2="625" y2="165" stroke="#48bb78" stroke-width="2"/>
  
  <line x1="255" y1="565" x2="220" y2="565" stroke="#38b2ac" stroke-width="2"/>
  <line x1="220" y1="565" x2="220" y2="250" stroke="#38b2ac" stroke-width="2"/>
  <line x1="220" y1="250" x2="475" y2="250" stroke="#38b2ac" stroke-width="2"/>
  <line x1="475" y1="250" x2="475" y2="175" stroke="#38b2ac" stroke-width="2"/>

  <!-- Battery to Relays COM -->
  <line x1="60" y1="70" x2="60" y2="50" stroke="#e53e3e" stroke-width="3"/>
  <line x1="60" y1="50" x2="390" y2="50" stroke="#e53e3e" stroke-width="3"/>
  <line x1="390" y1="50" x2="390" y2="420" stroke="#e53e3e" stroke-width="3"/>
  <line x1="390" y1="420" x2="375" y2="420" stroke="#e53e3e" stroke-width="3"/>
  
  <line x1="390" y1="420" x2="390" y2="540" stroke="#e53e3e" stroke-width="3"/>
  <line x1="390" y1="540" x2="375" y2="540" stroke="#e53e3e" stroke-width="3"/>

  <!-- Relays NO to Pump and Cutter -->
  <line x1="375" y1="435" x2="455" y2="435" stroke="#48bb78" stroke-width="2"/>
  <line x1="455" y1="435" x2="455" y2="415" stroke="#48bb78" stroke-width="2"/>
  
  <line x1="375" y1="555" x2="455" y2="555" stroke="#38b2ac" stroke-width="2"/>
  <line x1="455" y1="555" x2="455" y2="535" stroke="#38b2ac" stroke-width="2"/>

  <!-- Common Ground Bus -->
  <line x1="160" y1="170" x2="160" y2="650" stroke="#000" stroke-width="4"/>
  
  <!-- Ground to Bluetooth -->
  <line x1="160" y1="260" x2="255" y2="260" stroke="#000" stroke-width="2"/>
  
  <!-- Ground to Relays -->
  <line x1="160" y1="430" x2="255" y2="430" stroke="#000" stroke-width="2"/>
  <line x1="160" y1="550" x2="255" y2="550" stroke="#000" stroke-width="2"/>
  
  <!-- Ground to Pump and Cutter -->
  <line x1="160" y1="455" x2="455" y2="455" stroke="#000" stroke-width="2"/>
  <line x1="160" y1="575" x2="455" y2="575" stroke="#000" stroke-width="2"/>
  
  <!-- Ground to L298N -->
  <line x1="160" y1="180" x2="755" y2="180" stroke="#000" stroke-width="2"/>
  <line x1="160" y1="350" x2="755" y2="350" stroke="#000" stroke-width="2"/>

  <!-- Labels for power lines -->
  <text x="105" y="65" font-size="10" font-weight="bold" fill="#e53e3e">12V+</text>
  <text x="105" y="175" font-size="10" font-weight="bold" fill="#000">GND</text>
  <text x="410" y="95" font-size="10" font-weight="bold" fill="#f6ad55">5V</text>

  <!-- Legend -->
  <g id="legend">
    <rect x="50" y="700" width="600" height="250" fill="#f7fafc" stroke="#cbd5e0" stroke-width="2" rx="10"/>
    <text x="350" y="730" font-size="18" font-weight="bold" text-anchor="middle" fill="#2d3748">Connection Legend</text>
    
    <!-- Power connections -->
    <line x1="70" y1="760" x2="120" y2="760" stroke="#e53e3e" stroke-width="4"/>
    <text x="130" y="765" font-size="12" fill="#2d3748">12V Power (Red)</text>
    
    <line x1="70" y1="785" x2="120" y2="785" stroke="#000" stroke-width="4"/>
    <text x="130" y="790" font-size="12" fill="#2d3748">Ground/GND (Black)</text>
    
    <line x1="70" y1="810" x2="120" y2="810" stroke="#f6ad55" stroke-width="3"/>
    <text x="130" y="815" font-size="12" fill="#2d3748">5V Regulated (Orange)</text>
    
    <line x1="70" y1="835" x2="120" y2="835" stroke="#667eea" stroke-width="2"/>
    <text x="130" y="840" font-size="12" fill="#2d3748">Signal Wires (Purple)</text>
    
    <!-- Component notes -->
    <text x="350" y="875" font-size="14" font-weight="bold" fill="#2d3748">Important Notes:</text>
    <text x="70" y="900" font-size="11" fill="#2d3748">• All GND connections MUST be common (connected together)</text>
    <text x="70" y="920" font-size="11" fill="#2d3748">• LM2596 output must be adjusted to exactly 5V before connecting</text>
    <text x="70" y="940" font-size="11" fill="#2d3748">• Remove ENA/ENB jumpers on L298N modules</text>
  </g>

  <!-- Pin Connection Table -->
  <g id="pin-table">
    <rect x="750" y="450" width="400" height="240" fill="#fff" stroke="#cbd5e0" stroke-width="2" rx="10"/>
    <text x="950" y="480" font-size="16" font-weight="bold" text-anchor="middle" fill="#2d3748">Quick Pin Reference</text>
    
    <text x="770" y="510" font-size="11" font-weight="bold" fill="#667eea">Arduino → L298N #1:</text>
    <text x="780" y="530" font-size="10" fill="#4a5568">Pin 2 → IN1  |  Pin 3 → IN2  |  Pin 5 → ENA</text>
    
    <text x="770" y="560" font-size="11" font-weight="bold" fill="#9f7aea">Arduino → L298N #2:</text>
    <text x="780" y="580" font-size="10" fill="#4a5568">Pin 4 → IN3  |  Pin 7 → IN4  |  Pin 6 → ENB</text>
    
    <text x="770" y="610" font-size="11" font-weight="bold" fill="#3182ce">Arduino → HC-05:</text>
    <text x="780" y="630" font-size="10" fill="#4a5568">Pin 10 → TXD  |  Pin 11 → RXD</text>
    
    <text x="770" y="660" font-size="11" font-weight="bold" fill="#48bb78">Arduino → Relays:</text>
    <text x="780" y="680" font-size="10" fill="#4a5568">Pin 8 → Relay #1 (Pump)  |  Pin 9 → Relay #2 (Cutter)</text>
  </g>

  <!-- Title annotations -->
  <g id="annotations">
    <rect x="720" y="700" width="250" height="90" fill="#fef5e7" stroke="#f39c12" stroke-width="2" rx="8"/>
    <text x="845" y="725" font-size="13" font-weight="bold" text-anchor="middle" fill="#d68910">⚠️ CRITICAL</text>
    <text x="735" y="750" font-size="10" fill="#6c5ce7">1. Check LM2596 voltage = 5V</text>
    <text x="735" y="768" font-size="10" fill="#6c5ce7">2. Common ground essential</text>
    <text x="735" y="786" font-size="10" fill="#6c5ce7">3. Test before full assembly</text>
  </g>

  <!-- Component count -->
  <rect x="1100" y="450" width="250" height="200" fill="#ebf8ff" stroke="#3182ce" stroke-width="2" rx="10"/>
  <text x="1225" y="480" font-size="14" font-weight="bold" text-anchor="middle" fill="#2c5282">Components Used</text>
  
  <text x="1120" y="510" font-size="11" fill="#2d3748">✓ 1x Arduino UNO</text>
  <text x="1120" y="530" font-size="11" fill="#2d3748">✓ 2x L298N Motor Drivers</text>
  <text x="1120" y="550" font-size="11" fill="#2d3748">✓ 4x Gear Motors (45 RPM)</text>
  <text x="1120" y="570" font-size="11" fill="#2d3748">✓ 1x Cutter Motor (1000 RPM)</text>
  <text x="1120" y="590" font-size="11" fill="#2d3748">✓ 1x HC-05 Bluetooth Module</text>
  <text x="1120" y="610" font-size="11" fill="#2d3748">✓ 1x LM2596 Buck Converter</text>
  <text x="1120" y="630" font-size="11" fill="#2d3748">✓ 2x Relay Modules</text>
  
  <!-- Power indicator -->
  <circle cx="1130" cy="750" r="25" fill="#48bb78" stroke="#276749" stroke-width="3"/>
  <text x="1130" y="758" font-size="14" font-weight="bold" text-anchor="middle" fill="white">12V</text>
  
  <circle cx="1200" cy="750" r="25" fill="#f6ad55" stroke="#c05621" stroke-width="3"/>
  <text x="1200" y="758" font-size="14" font-weight="bold" text-anchor="middle" fill="white">5V</text>
  
  <text x="1165" y="790" font-size="10" text-anchor="middle" fill="#2d3748">Power Rails</text>
</svg>